<svg width="32" height="20" viewBox="0 0 32 20" fill="none" xmlns="http://www.w3.org/2000/svg">
<path d="M15.7685 19.7118C10.6211 19.6466 6.07551 17.6364 2.34683 13.7476C1.9258 13.3082 1.49104 12.8815 1.06314 12.4479C-0.387603 10.98 -0.35099 8.81414 1.15695 7.4229C2.45438 6.22615 3.68316 4.93902 5.07898 3.87042C8.5182 1.2401 12.4665 0.123439 16.7821 0.307642C21.8998 0.526168 26.1696 2.59473 29.7026 6.25819C30.1122 6.68266 30.5401 7.08882 30.952 7.511C32.3822 8.97546 32.3375 11.0532 30.8857 12.5051C29.3926 13.9993 27.9418 15.5324 26.1525 16.6948C23.0702 18.697 19.6893 19.6764 15.7685 19.7118ZM26.7268 8.71804C25.6216 7.61969 24.5358 6.43438 23.3368 5.37837C22.1252 4.31205 20.7202 3.52718 19.131 3.11073C20.798 4.08094 22.3208 5.21819 23.5976 6.67236C24.8688 8.12081 25.839 9.73744 26.4694 11.5554C24.3722 7.77872 21.7099 4.72851 20.5051 4.5443C21.3712 5.57515 22.3998 6.68838 23.299 7.89885C24.2097 9.12306 24.7681 10.5383 25.1067 11.8701C24.5862 10.8347 24.0507 9.64248 23.4009 8.51667C22.7533 7.39544 21.9009 6.42409 20.7705 5.57744C21.4078 6.52362 22.0485 7.33137 22.5268 8.22721C22.997 9.10818 23.3745 10.0567 23.6594 11.0154C23.9409 11.9605 24.0541 12.9547 24.2418 13.9283C24.1869 13.9386 24.1319 13.9489 24.077 13.9604C23.688 10.925 22.4718 7.91144 21.179 7.01559C22.6434 9.47201 23.2144 11.9959 22.9077 14.7075C22.8929 12.425 22.6721 10.1939 21.3231 8.23751C22.1252 10.3667 22.2865 12.5337 21.7751 14.7452C21.981 12.9478 21.9867 11.171 21.2694 9.38506C21.2694 10.5978 21.3117 11.7282 21.2579 12.854C21.203 13.9947 20.6241 15.5713 20.1756 16.045C20.9273 14.2659 21.3174 12.4513 20.9307 10.536C20.8037 11.179 20.7717 11.838 20.6309 12.4742C20.4891 13.1195 20.2843 13.7602 20.0291 14.37C19.7843 14.9535 19.4365 15.4935 19.1344 16.0518C19.0875 16.0266 19.0406 16.0026 18.9937 15.9775C19.8415 14.5588 20.4719 13.0748 20.417 11.3827C20.0349 12.6721 19.5932 13.9272 18.7432 15.0221C18.7031 14.9615 18.6814 14.9409 18.6848 14.9317C18.7329 14.8299 18.7809 14.7258 18.8381 14.6285C19.5898 13.354 19.9433 11.9685 19.9971 10.4983C20.1275 6.92407 18.1517 3.96996 14.7902 2.81326C11.938 1.83275 9.24242 2.31785 6.70134 3.85211C4.80668 4.99623 3.30446 6.59227 1.76677 8.15056C0.740495 9.19056 0.698166 10.663 1.71643 11.7213C2.13861 12.1607 2.58367 12.576 3.00699 13.0142C4.79868 14.8688 6.83291 16.3722 9.23327 17.3515C9.58451 17.4946 9.93919 17.633 10.2973 17.7566C10.6565 17.8801 11.0204 17.9922 11.3865 18.0918C11.7286 18.1845 12.0775 18.2554 12.4231 18.3366C10.9334 17.5804 9.44836 16.8573 8.05826 15.982C6.65214 15.0953 5.45997 13.9329 4.56642 12.8449C5.82266 13.7899 7.22649 14.95 8.73558 15.9511C10.2607 16.9625 11.9826 17.5655 13.8063 17.8549C11.8819 17.1467 10.1097 16.1742 8.52964 14.8722C6.93932 13.5611 5.64761 11.9994 4.67397 10.1825C7.74706 14.0176 10.7687 16.5003 12.7331 16.7177C9.47353 14.9157 7.15441 12.3643 5.79291 8.97203C7.17615 11.6367 9.00559 13.8975 11.6576 15.4203C9.28475 13.4741 7.74134 11.004 6.93474 8.06131C7.81571 10.4342 9.05364 12.5657 11.0867 14.1663C9.46438 12.1687 8.35573 9.94911 7.99533 7.27531C8.35115 8.33934 8.63261 9.31641 9.00559 10.2569C9.38544 11.2145 9.92546 12.0886 10.6863 12.8151C9.35111 10.4983 8.83397 8.02127 9.1017 5.35205C9.22984 8.61507 9.79503 10.8633 10.6829 11.671C9.93461 8.85533 9.76643 7.4229 10.0822 6.31768C10.0181 7.79817 10.1692 9.17225 10.7481 10.4765C10.7492 9.91135 10.6577 9.35302 10.652 8.79355C10.6451 8.20662 10.692 7.61397 10.7687 7.03047C10.8396 6.4893 10.9826 5.95843 11.0936 5.42184C11.0879 6.11861 10.9357 6.78906 10.9014 7.46638C10.8671 8.12996 10.9517 8.80041 10.9849 9.46743C11.0478 9.46743 11.1119 9.46858 11.1748 9.46858C11.184 7.76385 11.5615 6.16208 12.4803 4.71134C11.9437 5.94012 11.4517 7.17806 11.5524 8.58189C11.9894 7.50184 12.4082 6.46528 12.8281 5.42871C12.5821 6.55223 12.1851 7.63227 12.0661 8.74206C11.7503 11.6664 12.6233 14.2155 15.0717 15.9557C18.1333 18.1307 21.4124 18.0483 24.6777 16.3939C26.9899 15.2212 28.7473 13.3471 30.4715 11.4708C31.3067 10.5624 31.2106 9.21001 30.3685 8.29471C29.8148 7.69291 29.2141 7.13458 28.6443 6.54765C26.5769 4.41616 24.1216 2.90707 21.3037 1.99292C20.6081 1.76753 19.8827 1.63138 19.1711 1.4529C19.893 1.87737 20.6596 2.15081 21.3872 2.5032C22.1217 2.85788 22.8414 3.25488 23.5244 3.6988C24.2075 4.14386 24.8642 4.63812 25.482 5.17014C26.0758 5.68155 26.6032 6.26963 26.9041 6.57053C25.744 5.74562 24.3459 4.66787 22.8643 3.71711C21.2167 2.6588 18.6985 1.88767 17.8702 2.0753C21.6263 3.30065 24.5953 5.49163 26.7268 8.71804Z" fill="url(#paint0_linear_109_5195)"/>
<defs>
<linearGradient id="paint0_linear_109_5195" x1="15.265" y1="4.05807" x2="16.0815" y2="19.5719" gradientUnits="userSpaceOnUse">
<stop stop-color="#0940FF"/>
<stop offset="1" stop-color="#7204FD"/>
</linearGradient>
</defs>
</svg>
